<svg width="79" height="117" viewBox="0 0 79 117" fill="none" xmlns="http://www.w3.org/2000/svg">
<rect y="7" width="79" height="110" fill="#9E765E"/>
<rect x="8" y="18" width="63" height="87" fill="#FFFEFE"/>
<rect x="20" y="5" width="39" height="8" rx="4" fill="#774949"/>
<ellipse cx="39" cy="4.5" rx="6" ry="4.5" fill="#774949"/>
<path d="M18.688 47.416C17.5467 47.416 16.4587 47.2773 15.424 47C14.4 46.7227 13.488 46.312 12.688 45.768C11.8987 45.224 11.28 44.536 10.832 43.704C10.384 42.872 10.16 41.896 10.16 40.776H13.136C13.136 41.672 13.3653 42.4027 13.824 42.968C14.2933 43.5333 14.9547 43.9493 15.808 44.216C16.6613 44.4827 17.664 44.616 18.816 44.616C19.8507 44.616 20.704 44.4773 21.376 44.2C22.0587 43.912 22.5653 43.5333 22.896 43.064C23.2373 42.5947 23.408 42.0827 23.408 41.528C23.408 40.8133 23.1733 40.2053 22.704 39.704C22.2453 39.192 21.584 38.792 20.72 38.504L18.576 37.736V35.064L22.112 36.264C23.6373 36.776 24.8053 37.4533 25.616 38.296C26.4267 39.1387 26.832 40.2427 26.832 41.608C26.832 42.5787 26.5387 43.5067 25.952 44.392C25.3653 45.2773 24.4693 46.0027 23.264 46.568C22.0587 47.1333 20.5333 47.416 18.688 47.416ZM17.36 50.056V23.88H19.632V50.056H17.36ZM18.032 37.768L16.096 37.112C14.3253 36.5253 12.9707 35.832 12.032 35.032C11.0933 34.2213 10.624 33.1067 10.624 31.688C10.624 30.0773 11.2907 28.7707 12.624 27.768C13.9573 26.7547 15.888 26.248 18.416 26.248C20.7413 26.248 22.5227 26.7547 23.76 27.768C25.008 28.7813 25.776 30.1413 26.064 31.848H23.024C22.864 30.9733 22.3893 30.2587 21.6 29.704C20.8213 29.1493 19.744 28.872 18.368 28.872C16.9067 28.872 15.7973 29.1493 15.04 29.704C14.2933 30.248 13.92 30.9413 13.92 31.784C13.92 32.4453 14.1173 32.9787 14.512 33.384C14.9067 33.7787 15.536 34.12 16.4 34.408L18.032 35.048V37.768Z" fill="#FAC800"/>
<rect x="36" y="23" width="31" height="4" fill="#D9D9D9"/>
<g filter="url(#filter0_f_102_16)">
<path d="M61 103.763C61.521 103.131 62.0442 102.554 62.8154 102.061C63.3357 101.729 63.9388 101.452 64.3923 101.069C64.8506 100.681 65.06 100.24 65.4651 99.8529C66.1268 99.2204 67.0182 98.5528 67.5096 97.8483C67.9183 97.2624 68.6103 96.6782 69.38 96.3104C69.7424 96.1372 70.6248 95.7291 70.4802 95.3837C70.3402 95.0491 70.9859 94.9501 70.9937 95.0222C71.1414 96.3991 68.6703 98.0153 67.4363 98.8999C67.1933 99.074 66.9107 99.0743 66.6478 99.2022C66.3795 99.3327 66.2601 99.5771 66.0427 99.7411C65.6915 100.006 65.3644 100.222 65.0433 100.504C64.4772 101 63.8487 101.533 63.3105 102.081C62.8892 102.51 63.1088 102.605 63.1088 103.008C63.1088 103.458 61.9337 103.764 61.4951 104" stroke="#D9D9D9" stroke-width="3" stroke-linecap="round"/>
</g>
<rect x="53" y="29" width="14" height="4" fill="#D9D9D9"/>
<rect x="44" y="35" width="23" height="4" fill="#D9D9D9"/>
<rect x="12" y="70" width="55" height="4" fill="#D9D9D9"/>
<rect x="12" y="79" width="55" height="4" fill="#D9D9D9"/>
<rect x="12" y="87" width="52" height="4" fill="#D9D9D9"/>
<rect x="36" y="42" width="31" height="4" fill="#D9D9D9"/>
<defs>
<filter id="filter0_f_102_16" x="55.5" y="89.5" width="21.0002" height="20.0002" filterUnits="userSpaceOnUse" color-interpolation-filters="sRGB">
<feFlood flood-opacity="0" result="BackgroundImageFix"/>
<feBlend mode="normal" in="SourceGraphic" in2="BackgroundImageFix" result="shape"/>
<feGaussianBlur stdDeviation="2" result="effect1_foregroundBlur_102_16"/>
</filter>
</defs>
</svg>
