<svg width="121" height="117" viewBox="0 0 121 117" fill="none" xmlns="http://www.w3.org/2000/svg">
<g filter="url(#filter0_d_8_25)">
<path d="M99 63C99 69.0408 97.7714 75.0225 95.3843 80.6034C92.9972 86.1844 89.4984 91.2554 85.0876 95.5269C80.6768 99.7984 75.4404 103.187 69.6775 105.498C63.9145 107.81 57.7378 109 51.5 109L51.5 63H99Z" fill="#F0ED48"/>
</g>
<g filter="url(#filter1_d_8_25)">
<path d="M51.5 109C45.2622 109 39.0855 107.81 33.3225 105.498C27.5596 103.187 22.3232 99.7984 17.9124 95.5269C13.5016 91.2554 10.0028 86.1844 7.61572 80.6034C5.22862 75.0224 4 69.0408 4 63L51.5 63L51.5 109Z" fill="#289D4B"/>
</g>
<path d="M4 63C4 56.9592 5.22863 50.9775 7.61573 45.3965C10.0028 39.8156 13.5017 34.7446 17.9124 30.4731C22.3232 26.2016 27.5596 22.8132 33.3226 20.5015C39.0855 18.1898 45.2623 17 51.5 17L51.5 63L4 63Z" fill="white"/>
<circle cx="75" cy="63" r="10" fill="#000045"/>
<g filter="url(#filter2_d_8_25)">
<path d="M69.5 0C75.7378 7.20359e-08 81.9145 1.18983 87.6775 3.50154C93.4404 5.81326 98.6768 9.2016 103.088 13.4731C107.498 17.7446 110.997 22.8156 113.384 28.3966C115.771 33.9775 117 39.9592 117 46L69.5 46V0Z" fill="#3C5AF0"/>
</g>
<path d="M104 46C104 51.5228 99.5228 56 94 56C88.4772 56 84 51.5228 84 46C84 40.4772 88.4772 36 94 36C99.5228 36 104 40.4772 104 46Z" fill="#3C5AF0"/>
<circle cx="69" cy="24" r="10" fill="#3C5AF0"/>
<circle cx="28" cy="63" r="10" fill="#289D4B"/>
<circle cx="51" cy="85" r="10" fill="#F0ED48"/>
<circle cx="52" cy="38" r="10" fill="#000045"/>
<defs>
<filter id="filter0_d_8_25" x="47.5" y="63" width="55.5" height="54" filterUnits="userSpaceOnUse" color-interpolation-filters="sRGB">
<feFlood flood-opacity="0" result="BackgroundImageFix"/>
<feColorMatrix in="SourceAlpha" type="matrix" values="0 0 0 0 0 0 0 0 0 0 0 0 0 0 0 0 0 0 127 0" result="hardAlpha"/>
<feOffset dy="4"/>
<feGaussianBlur stdDeviation="2"/>
<feComposite in2="hardAlpha" operator="out"/>
<feColorMatrix type="matrix" values="0 0 0 0 0 0 0 0 0 0 0 0 0 0 0 0 0 0 0.25 0"/>
<feBlend mode="normal" in2="BackgroundImageFix" result="effect1_dropShadow_8_25"/>
<feBlend mode="normal" in="SourceGraphic" in2="effect1_dropShadow_8_25" result="shape"/>
</filter>
<filter id="filter1_d_8_25" x="0" y="63" width="55.5" height="54" filterUnits="userSpaceOnUse" color-interpolation-filters="sRGB">
<feFlood flood-opacity="0" result="BackgroundImageFix"/>
<feColorMatrix in="SourceAlpha" type="matrix" values="0 0 0 0 0 0 0 0 0 0 0 0 0 0 0 0 0 0 127 0" result="hardAlpha"/>
<feOffset dy="4"/>
<feGaussianBlur stdDeviation="2"/>
<feComposite in2="hardAlpha" operator="out"/>
<feColorMatrix type="matrix" values="0 0 0 0 0 0 0 0 0 0 0 0 0 0 0 0 0 0 0.25 0"/>
<feBlend mode="normal" in2="BackgroundImageFix" result="effect1_dropShadow_8_25"/>
<feBlend mode="normal" in="SourceGraphic" in2="effect1_dropShadow_8_25" result="shape"/>
</filter>
<filter id="filter2_d_8_25" x="65.5" y="0" width="55.5" height="54" filterUnits="userSpaceOnUse" color-interpolation-filters="sRGB">
<feFlood flood-opacity="0" result="BackgroundImageFix"/>
<feColorMatrix in="SourceAlpha" type="matrix" values="0 0 0 0 0 0 0 0 0 0 0 0 0 0 0 0 0 0 127 0" result="hardAlpha"/>
<feOffset dy="4"/>
<feGaussianBlur stdDeviation="2"/>
<feComposite in2="hardAlpha" operator="out"/>
<feColorMatrix type="matrix" values="0 0 0 0 0 0 0 0 0 0 0 0 0 0 0 0 0 0 0.25 0"/>
<feBlend mode="normal" in2="BackgroundImageFix" result="effect1_dropShadow_8_25"/>
<feBlend mode="normal" in="SourceGraphic" in2="effect1_dropShadow_8_25" result="shape"/>
</filter>
</defs>
</svg>
