<svg width="99" height="131" viewBox="0 0 99 131" fill="none" xmlns="http://www.w3.org/2000/svg">
<g filter="url(#filter0_d_10_166)">
<rect x="4" y="7" width="79" height="110" fill="#9E765E"/>
<rect x="12" y="18" width="63" height="87" fill="#FFFEFE"/>
<rect x="24" y="5" width="39" height="8" rx="4" fill="#774949"/>
<ellipse cx="43" cy="4.5" rx="6" ry="4.5" fill="#774949"/>
<path d="M22.688 47.416C21.5467 47.416 20.4587 47.2773 19.424 47C18.4 46.7227 17.488 46.312 16.688 45.768C15.8987 45.224 15.28 44.536 14.832 43.704C14.384 42.872 14.16 41.896 14.16 40.776H17.136C17.136 41.672 17.3653 42.4027 17.824 42.968C18.2933 43.5333 18.9547 43.9493 19.808 44.216C20.6613 44.4827 21.664 44.616 22.816 44.616C23.8507 44.616 24.704 44.4773 25.376 44.2C26.0587 43.912 26.5653 43.5333 26.896 43.064C27.2373 42.5947 27.408 42.0827 27.408 41.528C27.408 40.8133 27.1733 40.2053 26.704 39.704C26.2453 39.192 25.584 38.792 24.72 38.504L22.576 37.736V35.064L26.112 36.264C27.6373 36.776 28.8053 37.4533 29.616 38.296C30.4267 39.1387 30.832 40.2427 30.832 41.608C30.832 42.5787 30.5387 43.5067 29.952 44.392C29.3653 45.2773 28.4693 46.0027 27.264 46.568C26.0587 47.1333 24.5333 47.416 22.688 47.416ZM21.36 50.056V23.88H23.632V50.056H21.36ZM22.032 37.768L20.096 37.112C18.3253 36.5253 16.9707 35.832 16.032 35.032C15.0933 34.2213 14.624 33.1067 14.624 31.688C14.624 30.0773 15.2907 28.7707 16.624 27.768C17.9573 26.7547 19.888 26.248 22.416 26.248C24.7413 26.248 26.5227 26.7547 27.76 27.768C29.008 28.7813 29.776 30.1413 30.064 31.848H27.024C26.864 30.9733 26.3893 30.2587 25.6 29.704C24.8213 29.1493 23.744 28.872 22.368 28.872C20.9067 28.872 19.7973 29.1493 19.04 29.704C18.2933 30.248 17.92 30.9413 17.92 31.784C17.92 32.4453 18.1173 32.9787 18.512 33.384C18.9067 33.7787 19.536 34.12 20.4 34.408L22.032 35.048V37.768Z" fill="#FAC800"/>
<rect x="40" y="23" width="31" height="4" fill="#D9D9D9"/>
<rect x="57" y="29" width="14" height="4" fill="#D9D9D9"/>
<rect x="48" y="35" width="23" height="4" fill="#D9D9D9"/>
<rect x="16" y="70" width="55" height="4" fill="#D9D9D9"/>
<rect x="16" y="79" width="55" height="4" fill="#D9D9D9"/>
<rect x="16" y="87" width="52" height="4" fill="#D9D9D9"/>
<rect x="40" y="42" width="31" height="4" fill="#D9D9D9"/>
<circle cx="75" cy="103" r="20" fill="#289D4B"/>
</g>
<path d="M71.5396 110.75L64.6521 103.862L66.374 102.141L71.5396 107.306L82.6261 96.2198L84.3479 97.9417L71.5396 110.75Z" fill="#FEF7FF"/>
<defs>
<filter id="filter0_d_10_166" x="0" y="0" width="99" height="131" filterUnits="userSpaceOnUse" color-interpolation-filters="sRGB">
<feFlood flood-opacity="0" result="BackgroundImageFix"/>
<feColorMatrix in="SourceAlpha" type="matrix" values="0 0 0 0 0 0 0 0 0 0 0 0 0 0 0 0 0 0 127 0" result="hardAlpha"/>
<feOffset dy="4"/>
<feGaussianBlur stdDeviation="2"/>
<feComposite in2="hardAlpha" operator="out"/>
<feColorMatrix type="matrix" values="0 0 0 0 0 0 0 0 0 0 0 0 0 0 0 0 0 0 0.25 0"/>
<feBlend mode="normal" in2="BackgroundImageFix" result="effect1_dropShadow_10_166"/>
<feBlend mode="normal" in="SourceGraphic" in2="effect1_dropShadow_10_166" result="shape"/>
</filter>
</defs>
</svg>
