<svg width="99" height="131" viewBox="0 0 99 131" fill="none" xmlns="http://www.w3.org/2000/svg">
<g filter="url(#filter0_d_38_12)">
<rect x="4" y="7" width="79" height="110" fill="#9E765E"/>
<rect x="12" y="18" width="63" height="87" fill="#FFFEFE"/>
<rect x="24" y="5" width="39" height="8" rx="4" fill="#774949"/>
<ellipse cx="43" cy="4.5" rx="6" ry="4.5" fill="#774949"/>
<path d="M22 22H64V26H22V22Z" fill="#120F0F"/>
<path d="M55 30H72V34H55V30Z" fill="#D9D9D9"/>
<path d="M17 53H72V57H17V53Z" fill="#D9D9D9"/>
<path d="M44 98H72V102H44V98Z" fill="#D9D9D9"/>
<path d="M55 36H72V40H55V36Z" fill="#D9D9D9"/>
<path d="M55 42H72V46H55V42Z" fill="#D9D9D9"/>
<path d="M17 60H49V64H17V60Z" fill="#D9D9D9"/>
<path d="M53 60H72V64H53V60Z" fill="#D9D9D9"/>
<path d="M17 67H43V71H17V67Z" fill="#D9D9D9"/>
<path d="M47 67H72V71H47V67Z" fill="#D9D9D9"/>
<path d="M17 83H49V87H17V83Z" fill="#D9D9D9"/>
</g>
<path d="M80.8806 90.9156C78.9524 92.1753 76.9574 93.2804 75.0706 94.6114C73.7786 95.5229 72.3485 96.2144 71.177 97.2883C70.6619 97.7605 70.3813 98.4215 69.869 98.8929C69.4904 99.2411 68.9532 99.3141 68.561 99.6762C68.0583 100.14 67.6548 100.573 67.253 101.121C65.534 103.465 63.0673 105.135 61.3746 107.479C60.8761 108.169 60.4751 108.779 59.7852 109.258C59.3088 109.589 59.1353 110.248 58.827 110.711C58.2751 111.538 57.5979 112.919 57.3517 113.905C57.2216 114.425 56.4017 116.433 57.1996 116.718C58.3696 117.136 59.9023 116.212 60.9563 115.76C62.0526 115.29 63.0756 114.421 63.6331 113.365C63.9561 112.753 64.5052 112.264 64.8043 111.638C65.472 110.242 67.719 109.783 69.0173 109.258C70.8106 108.533 72.3671 107.593 73.4888 105.973C73.9789 105.265 74.6274 104.657 75.063 103.92C75.367 103.405 75.9755 102.996 76.1961 102.444C76.3719 102.005 76.6625 101.587 76.9109 101.189C77.2391 100.664 75.3167 101.602 75.2683 101.623C73.2314 102.499 71.1727 103.317 69.1237 104.163C66.2017 105.369 62.9476 106.758 61.1996 109.532C60.9043 110.001 60.6517 111.038 60.0133 111.038C59.7486 111.038 59.8295 111.174 60.0133 111.304C60.322 111.522 60.7203 111.448 61.078 111.448C61.6449 111.448 62.1445 111.123 62.5609 110.749C63.6908 109.732 64.7159 108.661 65.8233 107.615" stroke="#E6E6E6" stroke-width="5" stroke-linecap="round"/>
<path d="M78.8271 93.7901C77.6404 95.0955 76.2963 96.1693 74.9031 97.2503C74.0542 97.9089 73.3042 98.6906 72.4239 99.3111C72.0559 99.5706 71.8467 99.5765 71.8688 99.0678C71.9126 98.0589 72.1238 96.9253 72.4543 95.9727C72.6434 95.4278 72.9369 94.9718 73.2148 94.4746C73.5222 93.9244 74.1007 93.7729 74.6521 93.5772C75.0688 93.4293 75.8406 93.3689 76.1502 93.1057C76.9852 92.396 78.3226 91.9257 79.291 91.3947C80.0363 90.9859 80.5221 90.1053 80.9564 89.3946C82.0112 87.6686 83.2273 85.4428 85.4584 85.0371C85.8808 84.9603 86.2275 84.8087 86.6295 84.6189C86.9557 84.4648 87.218 84.5532 87.542 84.4668C87.8593 84.3822 88.418 83.9705 88.6828 84.3755C88.9635 84.8049 88.9565 85.4352 88.9565 85.9269C88.9565 87.0214 88.0589 87.6183 87.5877 88.5885C87.1669 89.4549 86.5171 90.3762 85.9451 91.1589C85.3483 91.9756 84.3296 92.6476 83.618 93.3795C83.0786 93.9344 82.8382 94.758 82.3252 95.3643C81.9724 95.7813 81.5602 96.0505 81.1541 96.3985C80.2561 97.1682 79.2014 97.8131 78.2035 98.4518C77.5676 98.8588 77.0024 99.3681 76.3936 99.8131C74.7322 101.027 79.5078 97.1226 81.0629 95.775C83.0613 94.0429 85.352 91.9071 86.4166 89.4022C86.7437 88.6324 87.1996 87.0828 85.9451 87.0828" stroke="#E6E6E6" stroke-width="5" stroke-linecap="round"/>
<circle cx="39.5" cy="38.5" r="7.5" fill="#AA2828"/>
<path d="M37 42.25L39.5 40.3437L42 42.25L41.0625 39.1563L43.5625 37.375H40.5L39.5 34.125L38.5 37.375H35.4375L37.9375 39.1563L37 42.25ZM39.5 44.75C38.6354 44.75 37.8229 44.5859 37.0625 44.2578C36.3021 43.9297 35.6406 43.4844 35.0781 42.9219C34.5156 42.3594 34.0703 41.6979 33.7422 40.9375C33.4141 40.1771 33.25 39.3646 33.25 38.5C33.25 37.6354 33.4141 36.8229 33.7422 36.0625C34.0703 35.3021 34.5156 34.6406 35.0781 34.0781C35.6406 33.5156 36.3021 33.0703 37.0625 32.7422C37.8229 32.4141 38.6354 32.25 39.5 32.25C40.3646 32.25 41.1771 32.4141 41.9375 32.7422C42.6979 33.0703 43.3594 33.5156 43.9219 34.0781C44.4844 34.6406 44.9297 35.3021 45.2578 36.0625C45.5859 36.8229 45.75 37.6354 45.75 38.5C45.75 39.3646 45.5859 40.1771 45.2578 40.9375C44.9297 41.6979 44.4844 42.3594 43.9219 42.9219C43.3594 43.4844 42.6979 43.9297 41.9375 44.2578C41.1771 44.5859 40.3646 44.75 39.5 44.75Z" fill="#852221"/>
<g filter="url(#filter1_d_38_12)">
<path d="M83 83C83.5253 82.4747 84.1489 82.058 84.8352 81.7737C85.5215 81.4895 86.2571 81.3431 87 81.3431C87.7429 81.3431 88.4785 81.4895 89.1648 81.7737C89.8511 82.058 90.4747 82.4747 91 83C91.5253 83.5253 91.942 84.1489 92.2263 84.8352C92.5105 85.5215 92.6569 86.2571 92.6569 87C92.6569 87.7429 92.5105 88.4785 92.2263 89.1648C91.942 89.8511 91.5253 90.4747 91 91L64 118L53 121L56 110L83 83Z" stroke="#E7E7E7" stroke-width="4" stroke-linecap="round" stroke-linejoin="round"/>
</g>
<defs>
<filter id="filter0_d_38_12" x="0" y="0" width="87" height="125" filterUnits="userSpaceOnUse" color-interpolation-filters="sRGB">
<feFlood flood-opacity="0" result="BackgroundImageFix"/>
<feColorMatrix in="SourceAlpha" type="matrix" values="0 0 0 0 0 0 0 0 0 0 0 0 0 0 0 0 0 0 127 0" result="hardAlpha"/>
<feOffset dy="4"/>
<feGaussianBlur stdDeviation="2"/>
<feComposite in2="hardAlpha" operator="out"/>
<feColorMatrix type="matrix" values="0 0 0 0 0 0 0 0 0 0 0 0 0 0 0 0 0 0 0.25 0"/>
<feBlend mode="normal" in2="BackgroundImageFix" result="effect1_dropShadow_38_12"/>
<feBlend mode="normal" in="SourceGraphic" in2="effect1_dropShadow_38_12" result="shape"/>
</filter>
<filter id="filter1_d_38_12" x="45" y="77" width="56" height="56" filterUnits="userSpaceOnUse" color-interpolation-filters="sRGB">
<feFlood flood-opacity="0" result="BackgroundImageFix"/>
<feColorMatrix in="SourceAlpha" type="matrix" values="0 0 0 0 0 0 0 0 0 0 0 0 0 0 0 0 0 0 127 0" result="hardAlpha"/>
<feOffset dy="4"/>
<feGaussianBlur stdDeviation="2"/>
<feComposite in2="hardAlpha" operator="out"/>
<feColorMatrix type="matrix" values="0 0 0 0 0 0 0 0 0 0 0 0 0 0 0 0 0 0 0.25 0"/>
<feBlend mode="normal" in2="BackgroundImageFix" result="effect1_dropShadow_38_12"/>
<feBlend mode="normal" in="SourceGraphic" in2="effect1_dropShadow_38_12" result="shape"/>
</filter>
</defs>
</svg>
